# xmcd CD database file
#
# Track frame offsets:
#	150
#	22897
#	48335
#	64887
#	77882
#	101470
#	118905
#	141837
#	166310
#	184902
#	197312
#	221047
#	241827
#	261722
#	286825
#
# Disc length: 4199 seconds
#
# Revision: 2
# Processed by: cddbd v1.5.2PL0 Copyright (c) Steve Scherf et al.
# Submitted via: jetAudio 5
#
DISCID=da10650f
DTITLE=不明瞭 - 不明瞭
DYEAR=1900
DGENRE=
TTITLE0=第 1 音軌
TTITLE1=第 2 音軌
TTITLE2=第 3 音軌
TTITLE3=第 4 音軌
TTITLE4=第 5 音軌
TTITLE5=第 6 音軌
TTITLE6=第 7 音軌
TTITLE7=第 8 音軌
TTITLE8=第 9 音軌
TTITLE9=第 10 音軌
TTITLE10=第 11 音軌
TTITLE11=第 12 音軌
TTITLE12=第 13 音軌
TTITLE13=第 14 音軌
TTITLE14=第 15 音軌
EXTD=
EXTT0=
EXTT1=
EXTT2=
EXTT3=
EXTT4=
EXTT5=
EXTT6=
EXTT7=
EXTT8=
EXTT9=
EXTT10=
EXTT11=
EXTT12=
EXTT13=
EXTT14=
PLAYORDER=
